<?xml version="1.0" standalone="no"?>
<!DOCTYPE svg PUBLIC "-//W3C//DTD SVG 20010904//EN"
 "http://www.w3.org/TR/2001/REC-SVG-20010904/DTD/svg10.dtd">
<svg version="1.0" xmlns="http://www.w3.org/2000/svg"
 width="192.000000pt" height="192.000000pt" viewBox="0 0 192.000000 192.000000"
 preserveAspectRatio="xMidYMid meet">
<metadata>
Created by potrace 1.11, written by Peter Selinger 2001-2013
</metadata>
<g transform="translate(0.000000,192.000000) scale(0.100000,-0.100000)"
fill="#000000" stroke="none">
<path d="M963 1895 c0 -8 5 -11 10 -8 6 4 7 1 3 -6 -6 -9 -13 -8 -27 5 -10 9
-19 13 -19 8 0 -13 -51 -14 -75 -1 -17 9 -18 8 -8 -4 10 -12 8 -15 -7 -15 -10
0 -16 5 -12 11 3 5 -1 4 -10 -2 -8 -7 -18 -10 -21 -6 -4 3 -7 2 -7 -4 0 -6
-11 -9 -25 -8 -14 2 -25 -2 -25 -8 0 -6 -7 -2 -15 9 -15 18 -15 18 -8 0 4 -13
3 -17 -5 -12 -7 4 -12 2 -12 -6 0 -8 -3 -9 -8 -3 -13 18 -32 16 -25 -3 3 -9 3
-14 -2 -10 -4 4 -14 3 -22 -3 -10 -9 -13 -8 -13 2 0 8 -5 6 -13 -6 -8 -10 -19
-15 -25 -11 -7 4 -12 2 -12 -3 0 -6 -6 -10 -12 -8 -7 1 -12 -4 -10 -12 3 -11
0 -12 -11 -2 -12 9 -21 5 -48 -23 -18 -20 -35 -33 -38 -31 -2 3 -11 -1 -19 -8
-13 -10 -14 -9 -8 3 4 8 -1 4 -12 -9 -19 -24 -72 -38 -72 -19 0 6 -7 5 -16 -3
-13 -10 -17 -10 -26 2 -7 11 -11 11 -15 1 -4 -10 -8 -10 -21 0 -12 10 -14 10
-8 1 4 -7 2 -13 -3 -13 -6 0 -11 5 -11 12 0 6 -9 3 -20 -7 -17 -16 -20 -16
-15 -3 7 17 -17 20 -32 3 -4 -4 -2 -5 6 0 10 6 12 4 7 -4 -5 -7 -14 -10 -22
-7 -7 3 -16 0 -20 -6 -5 -7 -2 -8 7 -4 9 5 8 2 -2 -6 -11 -9 -13 -21 -8 -41 4
-16 4 -25 -2 -21 -5 3 -7 -5 -5 -18 2 -13 -2 -29 -8 -37 -8 -11 -8 -13 2 -7 7
4 12 1 12 -9 0 -10 -5 -14 -12 -9 -10 5 -10 4 -1 -6 6 -7 9 -19 6 -28 -4 -8
-2 -13 3 -10 5 4 9 -9 9 -27 0 -18 -3 -31 -6 -29 -9 5 -21 -27 -14 -34 3 -3 5
1 5 8 0 7 2 11 5 8 9 -8 -6 -38 -16 -32 -8 5 -13 -9 -10 -28 0 -5 -4 -8 -10
-8 -5 0 -8 -4 -5 -9 9 -14 -5 -42 -17 -34 -6 3 -7 1 -3 -5 4 -6 -1 -24 -11
-39 -10 -15 -13 -24 -6 -20 7 5 9 0 6 -13 -3 -11 -9 -23 -14 -26 -5 -3 -9 -10
-9 -15 0 -6 4 -7 10 -4 6 3 7 -1 4 -9 -3 -9 -10 -13 -15 -10 -5 3 -6 -2 -3
-11 4 -8 0 -23 -7 -32 -10 -12 -10 -15 -2 -9 7 4 13 3 13 -3 0 -5 -6 -12 -12
-14 -10 -4 -10 -8 1 -15 11 -8 11 -10 0 -14 -11 -4 -12 -9 -2 -26 9 -16 10
-23 1 -28 -7 -5 -8 -3 -3 6 5 9 4 11 -3 6 -7 -4 -8 -15 -2 -30 4 -12 4 -29 0
-36 -5 -8 -5 -21 0 -30 5 -9 4 -23 -1 -32 -6 -11 -4 -21 6 -31 11 -12 12 -17
2 -20 -9 -4 -9 -6 1 -6 6 -1 12 -6 12 -12 0 -5 -4 -7 -10 -4 -6 3 -7 -1 -4 -9
3 -9 11 -13 16 -10 7 5 7 0 0 -12 -8 -15 -7 -24 6 -38 9 -11 12 -16 5 -13 -16
10 -5 -29 13 -44 12 -9 12 -15 2 -27 -10 -13 -10 -14 0 -8 7 4 12 1 12 -8 0
-9 5 -16 10 -16 7 0 7 -7 -1 -21 -7 -13 -7 -19 -1 -15 12 7 25 -11 27 -37 1
-10 6 -22 12 -25 18 -13 21 -40 7 -67 -15 -30 -19 -48 -5 -27 6 10 10 7 13
-11 3 -16 1 -24 -6 -21 -7 3 -12 -5 -12 -16 0 -14 5 -19 16 -15 11 5 12 3 4
-5 -14 -14 -7 -82 10 -92 7 -5 6 -8 -4 -9 -8 0 -4 -4 10 -8 14 -4 24 -13 22
-20 -1 -8 2 -10 10 -5 20 12 48 12 41 0 -4 -6 1 -5 10 3 15 12 21 9 18 -11 0
-4 6 -5 13 -2 12 4 14 -5 12 -45 -2 -28 1 -51 6 -51 5 0 6 -5 3 -10 -3 -6 1
-13 9 -16 9 -3 16 -11 16 -16 0 -15 60 -68 76 -68 8 0 23 9 34 20 11 11 25 20
31 20 5 0 7 5 4 10 -7 12 -1 13 82 14 35 1 63 -3 63 -7 0 -4 8 -4 18 1 22 11
31 9 61 -7 14 -8 21 -9 17 -2 -4 6 -2 11 3 11 6 0 11 -4 11 -9 0 -6 9 -8 20
-6 11 2 22 0 25 -5 3 -4 15 -6 27 -2 14 3 19 1 14 -6 -4 -7 6 -9 34 -7 27 3
40 0 40 -8 0 -8 3 -8 9 2 6 9 10 10 16 2 5 -9 10 -9 21 0 11 9 14 9 14 -1 0
-10 3 -10 14 -1 11 9 15 9 19 -1 4 -10 6 -10 6 1 1 11 4 11 18 0 11 -10 14
-10 9 -1 -4 6 -3 12 3 12 5 0 13 -5 17 -12 5 -7 11 -5 21 7 7 11 13 14 13 7 0
-6 7 -9 15 -6 8 4 12 11 8 18 -5 8 -3 8 8 0 16 -13 51 -15 43 -2 -3 4 4 8 16
8 14 0 19 -4 15 -13 -4 -6 -1 -5 7 4 7 8 27 15 43 14 17 -1 35 1 40 4 23 13
74 28 70 21 -7 -11 13 -16 55 -16 19 1 38 -3 42 -9 5 -6 8 -5 8 3 0 7 4 11 9
7 16 -10 22 14 10 37 -12 22 -11 22 6 8 35 -28 65 -61 65 -70 0 -23 92 41 102
71 13 38 -43 99 -63 68 -4 -7 -9 -4 -12 5 -4 9 -2 16 3 16 5 0 7 6 5 13 -4 8
7 12 34 12 22 1 37 -3 35 -7 -3 -4 -1 -8 5 -8 5 0 13 5 16 10 9 14 27 2 19
-13 -3 -7 2 -3 10 7 9 11 16 14 16 7 0 -7 5 -9 10 -6 6 4 8 11 5 16 -4 5 9 9
27 9 26 0 30 3 18 11 -12 8 -12 12 -2 16 10 4 10 8 0 21 -8 9 -8 13 -2 9 7 -4
15 0 18 9 3 8 2 13 -3 10 -16 -10 -20 21 -5 43 14 19 13 20 -3 15 -17 -5 -17
-5 0 9 18 15 24 32 7 22 -14 -9 -12 9 3 24 10 10 8 11 -8 6 -20 -7 -20 -6 -1
9 20 16 20 16 0 17 -11 0 -14 3 -6 6 9 3 10 9 2 17 -12 15 21 60 36 48 4 -4 2
1 -5 11 -10 12 -10 17 -2 17 7 0 9 5 6 10 -3 6 -1 10 5 10 6 0 8 5 4 12 -5 8
-2 9 11 4 16 -6 16 -4 4 11 -12 15 -12 16 6 10 20 -7 20 -7 1 8 -16 12 -17 15
-4 15 10 0 14 8 13 25 -2 14 1 25 6 25 6 0 8 4 5 9 -4 5 -2 11 4 13 6 2 12 13
15 26 2 12 0 20 -5 17 -4 -3 -7 3 -6 12 2 9 8 19 14 21 7 2 12 8 12 13 0 6 -4
7 -10 4 -17 -11 -11 17 8 32 9 8 11 12 4 8 -9 -5 -11 4 -9 34 2 22 6 44 10 47
4 4 7 12 7 18 0 6 -5 4 -10 -4 -8 -12 -10 -9 -7 12 1 15 6 30 10 34 4 4 3 12
-2 18 -5 6 -10 14 -10 19 -1 4 -1 8 -2 10 -8 27 -6 38 9 32 13 -5 13 -2 -3 15
-10 11 -15 20 -10 20 4 0 1 8 -6 17 -12 15 -12 16 1 8 12 -7 11 -3 -3 18 -17
26 -17 27 0 27 14 0 13 3 -5 16 -17 12 -20 19 -12 29 7 9 6 16 -5 25 -9 7 -14
19 -11 26 2 6 -4 21 -15 32 -10 12 -19 33 -19 47 0 15 -6 25 -14 25 -8 0 -17
7 -20 16 -5 14 -4 15 9 4 13 -11 14 -10 9 4 -3 9 -10 16 -15 16 -5 0 -9 5 -9
11 0 5 5 7 10 4 6 -3 10 -2 10 4 0 5 -6 12 -12 14 -10 4 -10 6 0 6 7 1 10 6 7
11 -3 6 -1 10 4 10 6 0 11 5 11 10 0 6 -3 9 -7 9 -22 -4 -25 3 -7 17 10 8 13
13 7 9 -7 -3 -13 -1 -13 4 0 6 5 11 10 11 6 0 10 5 10 10 0 6 -3 9 -7 9 -22
-4 -25 3 -7 17 10 8 13 13 7 9 -7 -3 -13 -1 -13 4 0 6 5 11 10 11 6 0 10 5 10
10 0 6 -3 9 -7 9 -21 -3 -24 3 -12 18 10 11 10 14 2 9 -12 -6 -17 4 -15 26 1
3 -5 9 -14 12 -10 4 -13 1 -9 -7 4 -6 0 -4 -8 5 -11 14 -16 15 -27 5 -10 -9
-13 -9 -17 1 -3 6 -9 12 -14 12 -6 0 -7 -5 -3 -11 4 -7 -1 -7 -16 1 -15 8 -20
8 -16 1 4 -6 3 -11 -3 -11 -5 0 -12 6 -14 13 -4 8 -8 8 -14 2 -10 -13 -47 -19
-39 -7 3 5 -1 9 -9 9 -8 0 -12 -4 -10 -8 9 -14 -23 -3 -49 16 -13 10 -22 23
-19 28 3 6 1 7 -5 4 -13 -9 -44 2 -37 13 3 5 1 11 -5 15 -5 3 -10 1 -10 -5 0
-6 -5 -8 -10 -5 -6 4 -8 11 -5 16 3 5 -1 6 -9 3 -9 -3 -16 -1 -16 6 0 6 -4 8
-10 5 -5 -3 -10 -1 -10 5 0 6 -4 8 -10 5 -5 -3 -10 -1 -10 5 0 6 -4 8 -10 5
-5 -3 -10 0 -10 7 0 9 -3 9 -10 -2 -6 -10 -10 -11 -10 -2 0 6 -7 12 -15 12 -8
0 -15 5 -15 10 0 6 -5 10 -11 10 -5 0 -7 -6 -3 -12 4 -7 -5 -2 -20 12 -23 21
-26 22 -20 5 7 -17 5 -18 -8 -8 -8 7 -19 9 -23 5 -5 -4 -5 1 -2 10 3 10 2 20
-4 23 -5 4 -9 3 -8 -2 4 -22 -3 -24 -21 -8 -20 18 -21 18 -14 -1 7 -18 7 -18
-13 -1 -12 11 -24 14 -27 9 -3 -6 -14 -9 -24 -7 -9 2 -21 4 -25 4 -5 1 -5 6
-2 12 4 6 -2 5 -13 -2 -18 -11 -24 -10 -40 4 -15 14 -19 14 -19 2z m-913
-1015 c0 -5 -5 -10 -11 -10 -5 0 -7 5 -4 10 3 6 8 10 11 10 2 0 4 -4 4 -10z
m380 -676 c0 -9 5 -12 13 -8 8 5 8 2 -2 -9 -19 -24 -29 -21 -27 8 1 27 16 35
16 9z"/>
<path d="M1059 1893 c-13 -16 -12 -17 4 -4 9 7 17 15 17 17 0 8 -8 3 -21 -13z"/>
<path d="M470 1760 c-8 -5 -12 -12 -9 -15 4 -3 12 1 19 10 14 17 11 19 -10 5z"/>
<path d="M1490 1726 c0 -2 8 -10 18 -17 15 -13 16 -12 3 4 -13 16 -21 21 -21
13z"/>
<path d="M1765 520 c-3 -5 -1 -10 4 -10 6 0 11 5 11 10 0 6 -2 10 -4 10 -3 0
-8 -4 -11 -10z"/>
<path d="M130 500 c0 -5 5 -10 11 -10 5 0 7 5 4 10 -3 6 -8 10 -11 10 -2 0 -4
-4 -4 -10z"/>
<path d="M1765 360 c-3 -5 -1 -10 4 -10 6 0 11 5 11 10 0 6 -2 10 -4 10 -3 0
-8 -4 -11 -10z"/>
</g>
</svg>
